<svg id="Capa_1" enable-background="new 0 0 512 512" height="512" viewBox="0 0 512 512" width="512" xmlns="http://www.w3.org/2000/svg"><circle cx="65.079" cy="37.805" r="10.102"/><circle cx="106.496" cy="37.805" r="10.102"/><circle cx="147.913" cy="37.805" r="10.102"/><path d="m357.22 0h-313.557c-15.164 0-27.5 12.336-27.5 27.5v345.125c0 4.142 3.358 7.5 7.5 7.5s7.5-3.358 7.5-7.5v-297.015h338.557v76.89c0 4.142 3.358 7.5 7.5 7.5s7.5-3.358 7.5-7.5v-125c0-15.164-12.337-27.5-27.5-27.5zm-326.057 60.61v-33.11c0-6.893 5.607-12.5 12.5-12.5h313.557c6.893 0 12.5 5.607 12.5 12.5v33.11z"/><path d="m377.22 180.021c-4.142 0-7.5 3.358-7.5 7.5v296.979c0 6.893-5.607 12.5-12.5 12.5h-313.557c-6.893 0-12.5-5.607-12.5-12.5v-76.875c0-4.142-3.358-7.5-7.5-7.5s-7.5 3.358-7.5 7.5v76.875c0 15.164 12.336 27.5 27.5 27.5h313.557c15.164 0 27.5-12.336 27.5-27.5v-296.979c0-4.142-3.358-7.5-7.5-7.5z"/><path d="m296.407 117.026c4.142 0 7.5-3.358 7.5-7.5s-3.358-7.5-7.5-7.5h-191.931c-4.142 0-7.5 3.358-7.5 7.5s3.358 7.5 7.5 7.5z"/><path d="m296.407 194.961h-151.525c-4.142 0-7.5 3.358-7.5 7.5s3.358 7.5 7.5 7.5h151.524c4.142 0 7.5-3.358 7.5-7.5s-3.357-7.5-7.499-7.5z"/><path d="m144.882 250.368h110.108c4.142 0 7.5-3.358 7.5-7.5s-3.358-7.5-7.5-7.5h-110.108c-4.142 0-7.5 3.358-7.5 7.5s3.358 7.5 7.5 7.5z"/><path d="m76.772 149.933c0 4.142 3.358 7.5 7.5 7.5h232.338c4.142 0 7.5-3.358 7.5-7.5s-3.358-7.5-7.5-7.5h-232.338c-4.142 0-7.5 3.358-7.5 7.5z"/><path d="m55.559 202.461v40.406c0 4.142 3.358 7.5 7.5 7.5h40.406c4.142 0 7.5-3.358 7.5-7.5v-40.406c0-4.142-3.358-7.5-7.5-7.5h-40.406c-4.142 0-7.5 3.358-7.5 7.5zm15 7.5h25.406v25.406h-25.406z"/><path d="m296.407 295.978h-151.525c-4.142 0-7.5 3.358-7.5 7.5s3.358 7.5 7.5 7.5h151.524c4.142 0 7.5-3.358 7.5-7.5s-3.357-7.5-7.499-7.5z"/><path d="m144.882 351.384h110.108c4.142 0 7.5-3.358 7.5-7.5s-3.358-7.5-7.5-7.5h-110.108c-4.142 0-7.5 3.358-7.5 7.5s3.358 7.5 7.5 7.5z"/><path d="m55.559 343.884c0 4.142 3.358 7.5 7.5 7.5h40.406c4.142 0 7.5-3.358 7.5-7.5v-40.407c0-4.142-3.358-7.5-7.5-7.5h-40.406c-4.142 0-7.5 3.358-7.5 7.5zm15-32.906h25.406v25.407h-25.406z"/><path d="m303.907 404.494c0-4.142-3.358-7.5-7.5-7.5h-151.525c-4.142 0-7.5 3.358-7.5 7.5s3.358 7.5 7.5 7.5h151.524c4.143 0 7.501-3.358 7.501-7.5z"/><path d="m144.882 437.4c-4.142 0-7.5 3.358-7.5 7.5s3.358 7.5 7.5 7.5h110.108c4.142 0 7.5-3.358 7.5-7.5s-3.358-7.5-7.5-7.5z"/><path d="m55.559 444.9c0 4.142 3.358 7.5 7.5 7.5h40.406c4.142 0 7.5-3.358 7.5-7.5v-40.406c0-4.142-3.358-7.5-7.5-7.5h-40.406c-4.142 0-7.5 3.358-7.5 7.5zm15-32.906h25.406v25.406h-25.406z"/><path d="m488.337 159.605h-1.591v-40.988c0-9.706-7.896-17.602-17.602-17.602h-20.204c-9.706 0-17.602 7.896-17.602 17.602v40.988h-1.591c-4.142 0-7.5 3.358-7.5 7.5v302.039c0 1.747.61 3.439 1.725 4.785l29.294 35.355c1.425 1.72 3.542 2.715 5.775 2.715s4.35-.995 5.775-2.715l29.295-35.355c1.115-1.345 1.725-3.038 1.725-4.785v-101.602c0-4.142-3.358-7.5-7.5-7.5s-7.5 3.358-7.5 7.5v98.899l-21.795 26.304-21.794-26.304v-154.453h43.589v20.512c0 4.142 3.358 7.5 7.5 7.5s7.5-3.358 7.5-7.5v-165.395c.001-4.142-3.357-7.5-7.499-7.5zm-51.089 15h14.294v61.191c0 4.142 3.358 7.5 7.5 7.5s7.5-3.358 7.5-7.5v-61.191h14.295v92.078h-43.589zm9.091-55.987c0-1.435 1.167-2.602 2.602-2.602h20.204c1.435 0 2.602 1.167 2.602 2.602v40.988h-25.407v-40.988zm-9.091 178.37v-15.305h43.589v15.305z"/></svg>