<?xml version="1.0" encoding="utf-8"?>
<!-- Generator: Adobe Illustrator 23.0.5, SVG Export Plug-In . SVG Version: 6.00 Build 0)  -->
<svg version="1.1" id="Layer_1" xmlns="http://www.w3.org/2000/svg" xmlns:xlink="http://www.w3.org/1999/xlink" x="0px" y="0px"
	 viewBox="0 0 284 384" style="enable-background:new 0 0 284 384;" xml:space="preserve">
<g>
	<path d="M188.7,135.4c0-31.6,0-63.2,0-95.2c-54.4,0-108.5,0-163,0c0,88.4,0,176.8,0,265.4c54.3,0,108.2,0,162.9,0c0-3.7,0-7.3,0-11
		c5.1,2.7,9.7,5.1,14.9,7.8c0,19,0.1,38.8-0.1,58.6c0,5.3-3.4,8.1-8.8,8.1c-58.3,0-116.7,0-175,0c-5.9,0-8.8-3.2-8.8-9.6
		c0-21.2,0-42.3,0-63.5c0-41.3-0.2-82.7-0.2-124c0-50,0.1-100,0.1-150c0-8.8,2.4-11.2,11.3-11.2c56.8,0,113.7,0,170.5,0
		c8.3,0,10.8,2.4,10.8,10.6c0.1,32.3,0.1,64.7-0.1,97c0,2-1.1,4.4-2.5,6.1c-3.3,4.1-7.1,7.8-10.7,11.7
		C189.8,136,189.2,135.7,188.7,135.4z M92,337.5c0,8.3,6.9,15.3,15.1,15.4c8.2,0.1,15.5-7.1,15.6-15.1c0.1-8.5-7.1-15.6-15.6-15.6
		C98.7,322.2,92,329,92,337.5z M107,28.8c7.5,0,15,0.2,22.5-0.1c1.6-0.1,3.1-1.9,4.7-3c-1.5-0.9-3-2.5-4.5-2.5
		c-14.8-0.2-29.6-0.2-44.4,0c-1.7,0-3.3,1.7-5,2.6c1.8,1,3.5,2.8,5.4,2.9C92.7,29,99.9,28.8,107,28.8z"/>
	<path d="M164.5,287.8c-4.1-2.1-9.2-4.5-14-7.4c-1.1-0.7-2.2-3.5-1.8-4.5c1.9-4.1,4.5-7.9,7.2-12.4c-6.4,1.4-13.3,2.7-19.9,4.6
		c-2.5,0.7-4.2,0.8-6.2-0.9c-4.6-3.8-9.3-7.5-14.2-11.4c8.5-13.2,16.9-26.1,25.2-39c-0.2-0.2-0.5-0.4-0.7-0.6
		c-12.4,8.9-24.7,17.7-37.8,27.1c-7.5-9.5-14.8-18.8-21.2-27c7.2-7.4,13.5-13.8,19.7-20.3c0.7-0.8,1.1-1.9,1.6-2.9
		c-8.3,2.3-16.4,4.5-24.4,6.8c-3.9,1.1-6.6,0.3-8.4-3.8c-2.1-5-4.6-9.8-7.2-15.3c27.9-3.8,52-13.5,69.8-36
		c26,25.9,51.6,51.5,76.9,76.8c-8.4,10.7-17.2,20.6-24.5,31.5C177.2,263.9,171.3,275.7,164.5,287.8z"/>
	<path d="M260.3,111.3c0.3-8.1-3.3-12.9-9.2-13c-5.1-0.1-9.7,4.4-9.7,9.5c-0.1,6,4.7,9.6,12.6,9.4c-19.3,18.7-38.3,37.2-57.3,55.7
		c-4.7-4.8-10.5-10.6-16.7-16.8c15.9-15.8,32-31.8,48-47.7c5.9-5.9,11.4-12.2,17.8-17.5c3.9-3.3,8.9-5.9,13.8-7.4
		c6.6-2,11.8,2.9,11.5,9.9C270.6,100.7,266.3,106.1,260.3,111.3z"/>
	<path d="M136.2,140.6c6.7-8.2,14.4-8.6,22.1-1c19.1,19,38.2,38,57.3,57c6.6,6.6,5.8,14.2-2.1,21.3
		C187.9,192.2,162.2,166.5,136.2,140.6z"/>
	<path d="M205.8,293.4c-8,0-13.7-5.5-13.7-13.3c0-7.3,6-13.3,13.4-13.3c7.4,0,13.4,6,13.4,13.2C218.9,287.8,213.4,293.4,205.8,293.4
		z"/>
	<path d="M188.7,265.8c-0.3-11,8.9-16.4,14.6-24c0,5.5,0,11.1,0,16.3C198.7,260.6,194.1,263,188.7,265.8z"/>
	<path d="M244.3,278c-0.1,5.3-1.9,7.4-5.5,7.5c-3.5,0-5.8-2-5.7-5.5c0-3.5,2.5-5.9,5.8-5.4C241.2,274.9,243.1,277.2,244.3,278z"/>
</g>
</svg>
